G04*
G04 #@! TF.GenerationSoftware,Altium Limited,Altium Designer,21.0.8 (223)*
G04*
G04 Layer_Physical_Order=1*
G04 Layer_Color=255*
%FSTAX24Y24*%
%MOIN*%
G70*
G04*
G04 #@! TF.SameCoordinates,AB0A05E5-0508-4E5D-A7E0-7FBC12203544*
G04*
G04*
G04 #@! TF.FilePolarity,Positive*
G04*
G01*
G75*
%ADD14C,0.0100*%
%ADD17O,0.0472X0.0138*%
%ADD18R,0.0472X0.0138*%
%ADD19R,0.0571X0.0354*%
%ADD20R,0.1043X0.0689*%
%ADD21R,0.1614X0.1614*%
%ADD22C,0.0394*%
%ADD23C,0.0197*%
%ADD24C,0.0787*%
%ADD25C,0.0260*%
%ADD26C,0.1181*%
G36*
X04165Y02285D02*
Y0148D01*
X0412Y01435D01*
X027932D01*
X02755Y014732D01*
Y0231D01*
X02755Y0231D01*
X02795Y0235D01*
X041D01*
X04165Y02285D01*
D02*
G37*
%LPC*%
G36*
X0352Y022701D02*
X032195D01*
X032117Y022691D01*
X032044Y022661D01*
X031982Y022613D01*
X031687Y022318D01*
X031639Y022256D01*
X031609Y022183D01*
X031599Y022105D01*
Y021944D01*
X031244D01*
X031232Y021951D01*
X03112Y021985D01*
X031004Y021997D01*
X02955D01*
X029527Y022012D01*
X029401Y022064D01*
X029268Y022091D01*
X029132D01*
X028999Y022064D01*
X028873Y022012D01*
X02876Y021936D01*
X02872Y021897D01*
X028719Y021896D01*
X028628Y021822D01*
X028554Y021731D01*
X028499Y021628D01*
X028465Y021516D01*
X028453Y0214D01*
X028465Y021284D01*
X028499Y021172D01*
X028554Y021069D01*
X028628Y020978D01*
X028719Y020904D01*
X02872Y020903D01*
X02876Y020864D01*
X028873Y020788D01*
X028999Y020736D01*
X029106Y020715D01*
X0292Y020621D01*
Y0175D01*
X029213Y017396D01*
X029253Y0173D01*
X029317Y017217D01*
X030317Y016217D01*
X0304Y016153D01*
X030496Y016113D01*
X0306Y0161D01*
X031874D01*
X031915Y016077D01*
X031915Y01605D01*
Y01585D01*
X0323D01*
X032685D01*
Y016077D01*
X032498D01*
X032475Y016127D01*
X032478Y016131D01*
X032785D01*
Y016886D01*
X032397D01*
X032395Y016887D01*
X032291Y0169D01*
X030766D01*
X03Y017666D01*
Y020787D01*
X030015Y020803D01*
X030703D01*
Y020046D01*
X030713Y019969D01*
X030743Y019896D01*
X030791Y019834D01*
X030992Y019632D01*
X030973Y019586D01*
X030265D01*
Y018831D01*
X031D01*
X031003Y018827D01*
X030976Y018777D01*
X0308D01*
Y01855D01*
X031135D01*
Y018674D01*
X031182Y018693D01*
X031583Y018291D01*
X031645Y018243D01*
X031718Y018213D01*
X031796Y018203D01*
X031965D01*
Y018119D01*
X032935D01*
Y018217D01*
X032993Y018225D01*
X033066Y018255D01*
X033128Y018303D01*
X033563Y018737D01*
X033611Y0188D01*
X033641Y018872D01*
X03365Y018943D01*
X03408D01*
Y018746D01*
X033917Y018583D01*
X033853Y0185D01*
X033813Y018404D01*
X0338Y0183D01*
Y016755D01*
X03381Y016674D01*
Y016652D01*
X033814Y016626D01*
Y016255D01*
X033894D01*
X033921Y016205D01*
X03392Y0162D01*
X03425D01*
Y0161D01*
X03392D01*
X033924Y016084D01*
X033939Y016062D01*
X033946Y016014D01*
X033927Y015996D01*
X033891Y015968D01*
X033848Y015912D01*
X033821Y015846D01*
X033811Y015776D01*
X033821Y015706D01*
X033848Y01564D01*
X033891Y015584D01*
X033947Y015541D01*
X034012Y015514D01*
X034083Y015505D01*
X034125D01*
X034172Y015485D01*
X03425Y015475D01*
X034421D01*
X034499Y015485D01*
X034572Y015515D01*
X034634Y015563D01*
X034715Y015643D01*
X034771Y01563D01*
X034806Y015584D01*
X034821Y015573D01*
X034882Y015493D01*
X034965Y015429D01*
X035062Y015389D01*
X035165Y015376D01*
X035269Y015389D01*
X035366Y015429D01*
X035448Y015493D01*
X03551Y015573D01*
X035524Y015584D01*
X035568Y01564D01*
X035595Y015706D01*
X035604Y015776D01*
X035595Y015846D01*
X035568Y015912D01*
X035566Y015914D01*
Y016147D01*
X036625D01*
X036665Y016123D01*
X036665Y016097D01*
Y015896D01*
X03705D01*
Y015846D01*
D01*
Y015896D01*
X037435D01*
Y016123D01*
X037344D01*
X037321Y016173D01*
X037324Y016177D01*
X037535D01*
Y016365D01*
X038503Y017333D01*
X038567Y017416D01*
X038607Y017513D01*
X03862Y017616D01*
Y018943D01*
X039227D01*
Y020953D01*
X039325D01*
X039423Y020888D01*
X039549Y020836D01*
X039682Y020809D01*
X039818D01*
X039951Y020836D01*
X040077Y020888D01*
X04019Y020964D01*
X040224Y020998D01*
X040228Y020999D01*
X040331Y021054D01*
X040422Y021128D01*
X040496Y021219D01*
X040551Y021322D01*
X040585Y021434D01*
X040597Y02155D01*
X040585Y021666D01*
X040551Y021778D01*
X040496Y021881D01*
X040422Y021972D01*
X040331Y022046D01*
X040228Y022101D01*
X040116Y022135D01*
X04Y022147D01*
X039994D01*
X039951Y022164D01*
X039818Y022191D01*
X039682D01*
X039549Y022164D01*
X039506Y022147D01*
X038681D01*
X038681Y022147D01*
X038565Y022135D01*
X038453Y022101D01*
X03835Y022046D01*
X03826Y021972D01*
X037798Y021511D01*
X037724Y02142D01*
X037669Y021317D01*
X037635Y021205D01*
X037624Y021089D01*
X037624Y021089D01*
Y020957D01*
X037213D01*
Y018943D01*
X03782D01*
Y017782D01*
X036985Y016948D01*
X035205D01*
X035188Y016945D01*
X035166Y01699D01*
X036563Y018387D01*
X036611Y018449D01*
X036641Y018522D01*
X036651Y0186D01*
Y02125D01*
X036641Y021328D01*
X036611Y0214D01*
X036563Y021463D01*
X035413Y022613D01*
X03535Y022661D01*
X035278Y022691D01*
X0352Y022701D01*
D02*
G37*
G36*
X0307Y018777D02*
X030365D01*
Y01855D01*
X0307D01*
Y018777D01*
D02*
G37*
G36*
X031135Y01845D02*
X0308D01*
Y018223D01*
X031135D01*
Y01845D01*
D02*
G37*
G36*
X0307D02*
X030365D01*
Y018223D01*
X0307D01*
Y01845D01*
D02*
G37*
G36*
X039718Y016641D02*
X0397D01*
Y016D01*
X040341D01*
Y016018D01*
X040314Y016151D01*
X040262Y016277D01*
X040186Y01639D01*
X04009Y016486D01*
X039977Y016562D01*
X039851Y016614D01*
X039718Y016641D01*
D02*
G37*
G36*
X0396D02*
X039582D01*
X039449Y016614D01*
X039323Y016562D01*
X03921Y016486D01*
X039114Y01639D01*
X039038Y016277D01*
X038986Y016151D01*
X038959Y016018D01*
Y016D01*
X0396D01*
Y016641D01*
D02*
G37*
G36*
X029218Y016591D02*
X0292D01*
Y01595D01*
X029841D01*
Y015968D01*
X029814Y016101D01*
X029762Y016227D01*
X029686Y01634D01*
X02959Y016436D01*
X029477Y016512D01*
X029351Y016564D01*
X029218Y016591D01*
D02*
G37*
G36*
X0291D02*
X029082D01*
X028949Y016564D01*
X028823Y016512D01*
X02871Y016436D01*
X028614Y01634D01*
X028538Y016227D01*
X028486Y016101D01*
X028459Y015968D01*
Y01595D01*
X0291D01*
Y016591D01*
D02*
G37*
G36*
X037435Y015796D02*
X0371D01*
Y015568D01*
X037435D01*
Y015796D01*
D02*
G37*
G36*
X037D02*
X036665D01*
Y015568D01*
X037D01*
Y015796D01*
D02*
G37*
G36*
X032685Y01575D02*
X03235D01*
Y015523D01*
X032685D01*
Y01575D01*
D02*
G37*
G36*
X03225D02*
X031915D01*
Y015523D01*
X03225D01*
Y01575D01*
D02*
G37*
G36*
X040341Y0159D02*
X0397D01*
Y015259D01*
X039718D01*
X039851Y015286D01*
X039977Y015338D01*
X04009Y015414D01*
X040186Y01551D01*
X040262Y015623D01*
X040314Y015749D01*
X040341Y015882D01*
Y0159D01*
D02*
G37*
G36*
X0396D02*
X038959D01*
Y015882D01*
X038986Y015749D01*
X039038Y015623D01*
X039114Y01551D01*
X03921Y015414D01*
X039323Y015338D01*
X039449Y015286D01*
X039582Y015259D01*
X0396D01*
Y0159D01*
D02*
G37*
G36*
X029841Y01585D02*
X0292D01*
Y015209D01*
X029218D01*
X029351Y015236D01*
X029477Y015288D01*
X02959Y015364D01*
X029686Y01546D01*
X029762Y015573D01*
X029814Y015699D01*
X029841Y015832D01*
Y01585D01*
D02*
G37*
G36*
X0291D02*
X028459D01*
Y015832D01*
X028486Y015699D01*
X028538Y015573D01*
X028614Y01546D01*
X02871Y015364D01*
X028823Y015288D01*
X028949Y015236D01*
X029082Y015209D01*
X0291D01*
Y01585D01*
D02*
G37*
%LPD*%
D14*
X03372Y01535D02*
X03377Y0153D01*
X03305Y01615D02*
Y01615D01*
D17*
X035165Y016524D02*
D03*
X03425Y01615D02*
D03*
Y015776D02*
D03*
X035165D02*
D03*
D18*
X03425Y016524D02*
D03*
D19*
X03705Y015846D02*
D03*
Y016554D02*
D03*
X03075Y019209D02*
D03*
Y0185D02*
D03*
X03245Y018496D02*
D03*
Y019204D02*
D03*
X0323Y016509D02*
D03*
Y0158D02*
D03*
D20*
X031004Y0214D02*
D03*
X032696D02*
D03*
D21*
X03448Y01995D02*
D03*
X03822D02*
D03*
D22*
X03448Y01858D02*
Y021169D01*
X0292Y021187D02*
X0296Y020787D01*
Y0175D02*
X0306Y0165D01*
X0296Y0175D02*
Y020787D01*
X0292Y021187D02*
Y0214D01*
X034249D02*
X03448Y021169D01*
X0342Y0183D02*
X03448Y01858D01*
X032696Y0214D02*
X034249D01*
X0306Y0165D02*
X032291D01*
X03822Y017616D02*
Y01995D01*
X035205Y016547D02*
X037043D01*
X035165Y015776D02*
Y016524D01*
X037043Y016547D02*
X03705Y016554D01*
X037158D02*
X03822Y017616D01*
X034211Y016652D02*
Y016744D01*
X0342Y016755D02*
Y0183D01*
Y016755D02*
X034211Y016744D01*
D23*
X0323Y0158D02*
X03235Y01575D01*
X032963D02*
X03305Y015837D01*
X03235Y01575D02*
X032963D01*
X031796Y018504D02*
X032442D01*
X03075Y019209D02*
X030823Y019136D01*
X031164D01*
X031796Y018504D01*
X032915Y018515D02*
X03335Y01895D01*
X03247Y018515D02*
X032915D01*
X03245Y018496D02*
X03247Y018515D01*
X032442Y018504D02*
X03245Y018496D01*
X03075Y0185D02*
X030807Y018443D01*
Y018143D02*
Y018443D01*
X031Y01795D02*
X0321D01*
X030807Y018143D02*
X031Y01795D01*
X0321D02*
X03305Y017D01*
X031846Y019204D02*
X03245D01*
X031004Y020046D02*
X031846Y019204D01*
X03235Y015415D02*
X032465Y0153D01*
X03235Y015415D02*
Y015721D01*
X032465Y0153D02*
X03377D01*
X03375Y01615D02*
X03425D01*
X033493Y015893D02*
X03375Y01615D01*
X03305Y015893D02*
X033493D01*
X03305Y015837D02*
Y01615D01*
X032261Y015761D02*
X0323Y015721D01*
X03235D01*
X029289Y015761D02*
X032261D01*
X02915Y0159D02*
X029289Y015761D01*
X03305Y01615D02*
Y017D01*
X035654Y0153D02*
X0362Y015846D01*
X03377Y0153D02*
X035654D01*
X0362Y015846D02*
X03705D01*
X032291Y0165D02*
X0323Y016509D01*
X034731Y016981D02*
X03635Y0186D01*
X034731Y016085D02*
Y016981D01*
X03635Y0186D02*
Y02125D01*
X03225Y02025D02*
X03285D01*
X03335Y01975D01*
Y01895D02*
Y01975D01*
X0319Y022105D02*
X032195Y0224D01*
X0352D01*
X0319Y0206D02*
Y022105D01*
Y0206D02*
X03225Y02025D01*
X031004Y020046D02*
Y0214D01*
X0352Y0224D02*
X03635Y02125D01*
X034421Y015776D02*
X034731Y016085D01*
X034276Y015776D02*
X034421D01*
X03425D02*
X034276D01*
D24*
X02945Y0214D02*
X031004D01*
X02905D02*
X02945D01*
X038681Y02155D02*
X04D01*
X03822Y01995D02*
Y021089D01*
X038681Y02155D01*
D25*
X03705Y015846D02*
X0397D01*
D26*
X02915Y0159D02*
D03*
X03965Y01595D02*
D03*
X0292Y0214D02*
D03*
X03975Y0215D02*
D03*
M02*
